# xmcd
#
# Track frame offsets:
#	150
#	5355
#	12116
#	22716
#	34947
#	42979
#	50778
#	63120
#	70102
#	80753
#	86569
#	89937
#	113213
#	120189
#	121730
#	126590
#	133270
#	153951
#	162379
#	168210
#	172597
#	183700
#	199319
#	208110
#	216803
#	224437
#	233290
#	243874
#
# Disc length: 3387 seconds
#
# Revision: 1
# Processed by: cddbd v1.5.1PL2 Copyright (c) Steve Scherf et al.
# Submitted via: audiograbber 1.83.01
#
DISCID=7e0d391c
DTITLE=Hans Dorrestijn - Samen solo CD 1
DYEAR=2006
DGENRE=Cabaret
TTITLE0=Metterwoon
TTITLE1=Inleiding De zwervers
TTITLE2=De zwervers
TTITLE3=Paradoxen
TTITLE4=Decibellen
TTITLE5=De mooiste vogels zijn verdwenen
TTITLE6=Biologen
TTITLE7=Jagerslied
TTITLE8=Inleiding WK
TTITLE9=WK Gehandicapten
TTITLE10=Russisch lied I
TTITLE11=DPA
TTITLE12=Feest en andere dieptepunten
TTITLE13=Gedicht bij mijn 50e verjaardag
TTITLE14=Russisch lied II
TTITLE15=Scènes uit een huwelijk
TTITLE16=Alles is tranen
TTITLE17=Het buigen
TTITLE18=Selectiemethoden
TTITLE19=Pretpark
TTITLE20=De man van Ongarak
TTITLE21=De Goede Kennis
TTITLE22=Goeienavond Toos
TTITLE23=Dorrrestijn's huwelijkslied I
TTITLE24=Dorrrestijn's huwelijkslied II
TTITLE25=Vader's vakantie
TTITLE26=Renault 4
TTITLE27=Ik denk aan jij
EXTD=
EXTT0=
EXTT1=
EXTT2=
EXTT3=
EXTT4=
EXTT5=
EXTT6=
EXTT7=
EXTT8=
EXTT9=
EXTT10=
EXTT11=
EXTT12=
EXTT13=
EXTT14=
EXTT15=
EXTT16=
EXTT17=
EXTT18=
EXTT19=
EXTT20=
EXTT21=
EXTT22=
EXTT23=
EXTT24=
EXTT25=
EXTT26=
EXTT27=
PLAYORDER=
